<svg width="30" height="32" viewBox="0 0 30 32" fill="none" xmlns="http://www.w3.org/2000/svg">
<g clip-path="url(#clip0_194_214)">
<path d="M14.9871 31.5134L6.32925 29.0553L4.3999 6.92358H25.6001L23.6688 29.0519L14.9871 31.5134Z" fill="#264DE4"/>
<path d="M22.0152 27.6428L23.6657 8.73315H15V29.6319L22.0152 27.6428Z" fill="#2965F1"/>
<path d="M8.823 16.9417L9.06087 19.656H15.0001V16.9417H8.823Z" fill="#EBEBEB"/>
<path d="M8.34497 11.4478L8.58623 14.1622H15.0001V11.4478H8.34497Z" fill="#EBEBEB"/>
<path d="M15.0001 23.9911L14.9885 23.9943L12.0326 23.178L11.8437 21.0132H9.17944L9.55127 25.2751L14.9879 26.8187L15.0001 26.8152V23.9911Z" fill="#EBEBEB"/>
<path d="M9.38916 0.90918H12.6037V2.28398H10.7334V3.65879H12.6037V5.03359H9.38916V0.90918Z" fill="black"/>
<path d="M13.2466 0.90918H16.4611V2.10466H14.5908V2.34376H16.4611V5.09336H13.2466V3.83811H15.1168V3.59901H13.2466V0.90918Z" fill="black"/>
<path d="M17.104 0.90918H20.3185V2.10466H18.4483V2.34376H20.3185V5.09336H17.104V3.83811H18.9743V3.59901H17.104V0.90918Z" fill="black"/>
<path d="M21.1603 16.9417L21.6394 11.4478H14.991V14.1622H18.7308L18.4893 16.9417H14.991V19.656H18.2591L17.9511 23.1764L14.991 23.9935V26.8174L20.4319 25.2752L20.4718 24.8166L21.0955 17.6706L21.1603 16.9417Z" fill="white"/>
</g>
<defs>
<clipPath id="clip0_194_214">
<rect width="30" height="30.6818" fill="white" transform="translate(0 0.90918)"/>
</clipPath>
</defs>
</svg>
