<svg width="25" height="24" viewBox="0 0 25 24" fill="none" xmlns="http://www.w3.org/2000/svg">
<g clip-path="url(#clip0_194_348)">
<path fill-rule="evenodd" clip-rule="evenodd" d="M12.2768 0C18.97 0 24.3955 5.50792 24.3955 12.3035C24.3955 17.7383 20.9271 22.3487 16.1148 23.9771C15.5004 24.0983 15.2823 23.7141 15.2823 23.3865C15.2823 22.9809 15.2968 21.6562 15.2968 20.0098C15.2968 18.8626 14.909 18.1138 14.474 17.7322C17.1728 17.4274 20.0085 16.3869 20.0085 11.6613C20.0085 10.3173 19.5383 9.22058 18.7603 8.35898C18.8864 8.04818 19.302 6.79674 18.6416 5.10234C18.6416 5.10234 17.626 4.77267 15.3126 6.36387C14.3443 6.09147 13.3069 5.95441 12.2768 5.94961C11.2468 5.95441 10.2106 6.09147 9.24355 6.36387C6.92768 4.77267 5.90971 5.10234 5.90971 5.10234C5.25167 6.79674 5.66734 8.04818 5.79216 8.35898C5.01778 9.22058 4.54394 10.3173 4.54394 11.6613C4.54394 16.3749 7.37365 17.4314 10.0652 17.7422C9.71861 18.0494 9.40473 18.5913 9.29566 19.3869C8.6049 19.7013 6.85011 20.2454 5.76913 18.365C5.76913 18.365 5.12806 17.1829 3.91135 17.0965C3.91135 17.0965 2.72978 17.0809 3.82894 17.8441C3.82894 17.8441 4.62271 18.2221 5.17411 19.6441C5.17411 19.6441 5.88548 21.8401 9.25688 21.0961C9.26294 22.1245 9.27385 23.0937 9.27385 23.3865C9.27385 23.7117 9.05086 24.0923 8.44614 23.9783C3.63019 22.3523 0.158203 17.7395 0.158203 12.3035C0.158203 5.50792 5.58493 0 12.2768 0Z" fill="black"/>
</g>
<defs>
<clipPath id="clip0_194_348">
<rect width="24.2373" height="24" fill="white" transform="translate(0.158203)"/>
</clipPath>
</defs>
</svg>
