<svg width="31" height="21" viewBox="0 0 31 21" fill="none" xmlns="http://www.w3.org/2000/svg">
<path d="M7.77862 5.4545H13.429V5.95282H8.29658V9.7033H13.123V10.2016H8.29658V14.3193H13.4879V14.8176H7.77862V5.4545ZM13.9352 5.4545H14.5356L17.196 9.57217L19.9152 5.4545L23.6139 0.224121L17.5374 10.0049L20.6686 14.8176H20.0447L17.196 10.4377L14.3355 14.8176H13.7233L16.8781 10.0049L13.9352 5.4545ZM20.8923 5.95282V5.4545H27.3314V5.95282H24.3649V14.8176H23.847V5.95282H20.8923ZM0.709717 5.4545H1.35716L10.285 20.2782L6.59557 14.8176L1.25122 6.16263L1.22767 14.8176H0.709717V5.4545ZM27.2792 14.1689C27.1734 14.1689 27.094 14.0779 27.094 13.9604C27.094 13.8428 27.1734 13.7518 27.2792 13.7518C27.3863 13.7518 27.4644 13.8428 27.4644 13.9604C27.4644 14.0779 27.3863 14.1689 27.2792 14.1689ZM27.7882 13.6202H28.0653C28.0691 13.7868 28.1787 13.8988 28.34 13.8988C28.5201 13.8988 28.6222 13.7784 28.6222 13.5531V12.1254H28.9044V13.5545C28.9044 13.9604 28.6927 14.1941 28.3425 14.1941C28.0137 14.1941 27.7882 13.9674 27.7882 13.6202ZM29.2735 13.602H29.5531C29.5771 13.7938 29.7459 13.9156 29.989 13.9156C30.2158 13.9156 30.3821 13.7854 30.3821 13.6062C30.3821 13.4523 30.2763 13.3599 30.0356 13.2969L29.8013 13.2339C29.4725 13.1486 29.3226 12.9722 29.3226 12.6755C29.3226 12.3158 29.5872 12.0764 29.984 12.0764C30.3531 12.0764 30.6227 12.3158 30.6391 12.6559H30.3644C30.338 12.4697 30.1919 12.3535 29.9802 12.3535C29.7572 12.3535 29.6086 12.4725 29.6086 12.6545C29.6086 12.7986 29.7043 12.8812 29.9412 12.9428L30.1415 12.9974C30.5144 13.094 30.6681 13.2619 30.6681 13.5656C30.6681 13.952 30.3985 14.1941 29.9676 14.1941C29.5645 14.1941 29.2936 13.9632 29.2735 13.602Z" fill="white"/>
</svg>
