<svg width="25" height="24" viewBox="0 0 25 24" fill="none" xmlns="http://www.w3.org/2000/svg">
<g clip-path="url(#clip0_194_344)">
<path fill-rule="evenodd" clip-rule="evenodd" d="M24.8418 22.9091H19.485V15.2391C19.485 13.2315 18.6471 11.861 16.8045 11.861C15.3951 11.861 14.6113 12.7859 14.2465 13.6772C14.1097 13.9971 14.1311 14.4428 14.1311 14.8885V22.9091H8.8242C8.8242 22.9091 8.89261 9.32251 8.8242 8.08749H14.1311V10.4136C14.4446 9.39655 16.1404 7.94498 18.8466 7.94498C22.204 7.94498 24.8418 10.0769 24.8418 14.6677V22.9091ZM3.45744 6.23356H3.42325C1.71319 6.23356 0.604492 5.10052 0.604492 3.66433C0.604492 2.20019 1.74596 1.09091 3.49022 1.09091C5.23306 1.09091 6.3047 2.19741 6.3389 3.66015C6.3389 5.09634 5.23306 6.23356 3.45744 6.23356ZM1.21582 8.08749H5.93989V22.9091H1.21582V8.08749Z" fill="#007EBB"/>
</g>
<defs>
<clipPath id="clip0_194_344">
<rect width="24.2373" height="24" fill="white" transform="translate(0.604492)"/>
</clipPath>
</defs>
</svg>
