<svg width="41" height="30" viewBox="0 0 41 30" fill="none" xmlns="http://www.w3.org/2000/svg">
<path d="M23.3624 29.2095H37.3261C37.6686 29.2095 38.0266 29.0756 38.3904 28.8457L38.3904 28.8456C38.783 28.5975 39.1087 28.3315 39.2804 28.0057L39.2804 28.0056C39.4902 27.6076 39.6223 27.1808 39.6222 26.7683C39.622 26.355 39.4904 25.9283 39.2806 25.5313L39.2803 25.5306L29.2943 6.55966L23.3624 29.2095ZM23.3624 29.2095L25.2498 25.5034H34.6631H35.4938L35.1049 24.7694L27.7818 10.9455L27.3383 10.1083L26.8974 10.9469L24.5007 15.5058L24.5 15.5072L19.9747 24.1806C19.0678 25.8561 17.9796 27.1082 16.698 27.9425C15.4191 28.7751 13.9206 29.2095 12.1611 29.2095H2.8407C2.49813 29.2095 2.14013 29.0756 1.77636 28.8456C1.38384 28.5975 1.05812 28.3314 0.886356 28.0057C0.71275 27.6763 0.67753 27.2792 0.677735 26.7683C0.677941 26.2562 0.712536 25.8599 0.886143 25.5312L0.886507 25.5306L13.269 2.00052C13.2691 2.00042 13.2691 2.00033 13.2692 2.00024C13.4684 1.62287 13.8317 1.22054 14.159 1.01372L14.1591 1.0137C14.4397 0.836368 14.7664 0.796875 15.2235 0.796875C15.6806 0.796875 16.0072 0.836363 16.2878 1.0137L16.2879 1.01375C16.5719 1.19317 16.8074 1.5508 17.0448 2.00052L17.0447 2.00052L17.0466 2.0039L22.1062 11.4163L22.5534 12.2482L22.99 11.4107L25.5187 6.55966C25.5189 6.55936 25.519 6.55906 25.5192 6.55876C25.7181 6.18166 25.9486 5.92635 26.2756 5.71964C26.6393 5.4898 26.9975 5.35579 27.34 5.35579C27.7075 5.35579 28.2007 5.50682 28.5375 5.71967C28.8646 5.92648 29.0952 6.18198 29.2942 6.55939L23.3624 29.2095ZM5.06085 24.7712L4.67674 25.5034H5.50363H12.028C13.1811 25.5034 14.1819 25.3106 15.0685 24.7858C15.9539 24.2618 16.6747 23.4368 17.3241 22.2638L17.3243 22.2639L17.3304 22.2521L20.5937 15.9689L20.7148 15.7357L20.5914 15.5037L15.665 6.23877L15.2205 5.40287L14.7807 6.24126L5.06085 24.7712Z" fill="#00DC82" stroke="white"/>
</svg>
