<svg width="35" height="35" viewBox="0 0 35 35" fill="none" xmlns="http://www.w3.org/2000/svg">
<path d="M17.5 32.8125C25.9569 32.8125 32.8125 25.9569 32.8125 17.5C32.8125 9.04314 25.9569 2.1875 17.5 2.1875C9.04314 2.1875 2.1875 9.04314 2.1875 17.5C2.1875 25.9569 9.04314 32.8125 17.5 32.8125Z" fill="white"/>
<path d="M20.0058 17.5001C20.0058 17.8291 19.941 18.1549 19.8151 18.4589C19.6891 18.7628 19.5045 19.039 19.2718 19.2716C19.0391 19.5042 18.7629 19.6886 18.4589 19.8144C18.1549 19.9403 17.8291 20.0049 17.5 20.0048C16.8358 20.0048 16.1987 19.7409 15.729 19.2712C15.2592 18.8015 14.9954 18.1644 14.9954 17.5001C14.9954 16.8357 15.2593 16.1985 15.7291 15.7286C16.199 15.2588 16.8362 14.9949 17.5006 14.9949C18.165 14.9949 18.8022 15.2588 19.2721 15.7286C19.7419 16.1985 20.0058 16.8357 20.0058 17.5001Z" fill="#263238"/>
<path d="M28.6213 11.0785C28.0763 10.1413 27.4148 9.27695 26.6526 8.506L23.7574 10.1772C22.8643 9.41469 21.8394 8.82164 20.7332 8.42725C19.7664 9.39715 18.9746 10.5269 18.3926 11.7665C21.9136 11.6496 25.3519 12.8483 28.0373 15.1287L29.8595 14.0765C29.5746 13.0295 29.1582 12.0229 28.6202 11.0807L28.6213 11.0785Z" fill="#1976D2"/>
<path d="M28.6225 23.9193C29.1615 22.979 29.5794 21.9742 29.8661 20.9289L26.9698 19.2566C27.185 18.1 27.1869 16.9138 26.9753 15.7566C25.6519 15.4042 24.2776 15.2832 22.9131 15.3989C24.7778 18.3908 25.4606 21.9702 24.8282 25.4385L26.6504 26.4907C27.4137 25.7202 28.0763 24.8562 28.6225 23.9193Z" fill="#42A5F5"/>
<path d="M17.5001 30.3406C18.5842 30.3375 19.6636 30.1971 20.7124 29.9228V26.5781C21.82 26.1867 22.8467 25.5962 23.7421 24.8358C23.3855 23.5135 22.8031 22.2628 22.0205 21.1389C20.3613 24.2467 17.6042 26.6253 14.2866 27.8108V29.9152C15.3355 30.1922 16.4152 30.3351 17.5001 30.3406Z" fill="#1976D2"/>
<path d="M6.38094 23.9204C6.92597 24.8576 7.58748 25.7219 8.34969 26.4929L11.2459 24.8205C12.1391 25.5831 13.164 26.1762 14.2702 26.5705C15.2369 25.6006 16.0288 24.4709 16.6108 23.2313C13.0898 23.3481 9.65143 22.1495 6.96609 19.8691L5.14062 20.9246C5.42583 21.9716 5.84259 22.9782 6.38094 23.9204Z" fill="#42A5F5"/>
<path d="M6.37984 11.0797C5.8423 12.0202 5.42592 13.025 5.14062 14.07L8.03688 15.7424C7.82163 16.8989 7.81978 18.0851 8.03141 19.2424C9.35475 19.5947 10.729 19.7157 12.0936 19.6C10.2285 16.6083 9.5453 13.0289 10.1773 9.56049L8.35516 8.5083C7.59072 9.27853 6.92699 10.1426 6.37984 11.0797Z" fill="#1976D2"/>
<path d="M17.5001 4.6582C16.416 4.66132 15.3366 4.80171 14.2877 5.07602V8.4218C13.1802 8.81325 12.1534 9.40372 11.2581 10.1641C11.6146 11.4864 12.197 12.7371 12.9796 13.861C14.6388 10.7532 17.396 8.37466 20.7135 7.18914V5.08367C19.6646 4.80669 18.5849 4.66373 17.5001 4.6582Z" fill="#42A5F5"/>
</svg>
