<svg width="31" height="30" viewBox="0 0 31 30" fill="none" xmlns="http://www.w3.org/2000/svg">
<g clip-path="url(#clip0_194_116)">
<path d="M18.4697 14.9773C18.4697 13.6325 17.3454 12.5422 15.9582 12.5422C14.5713 12.5422 13.4468 13.6325 13.4468 14.9773C13.4468 16.3222 14.5713 17.4125 15.9582 17.4125C17.3454 17.4125 18.4697 16.3222 18.4697 14.9773Z" fill="#53C1DE"/>
<path fill-rule="evenodd" clip-rule="evenodd" d="M24.1149 10.4566C24.6452 8.36698 25.3119 4.49201 22.9618 3.17827C20.6226 1.87026 17.5786 4.37665 15.9713 5.88111C14.3686 4.39164 11.2392 1.89597 8.89103 3.21388C6.55279 4.52628 7.27385 8.337 7.81597 10.4397C5.63479 11.0404 1.89575 12.3341 1.89575 14.9774C1.89575 17.6132 5.6309 19.0207 7.79917 19.6208C7.25505 21.7352 6.57009 25.4915 8.91132 26.801C11.2682 28.1186 14.3879 25.6823 16.0102 24.1614C17.6278 25.6747 20.6426 28.127 22.9822 26.8138C25.3291 25.4965 24.7179 21.6735 24.1757 19.5586C26.2776 18.9572 30.0208 17.5803 30.0208 14.9774C30.0208 12.3595 26.2617 11.0553 24.1149 10.4566ZM23.8484 18.4378C23.4925 17.3452 23.012 16.1834 22.4243 14.9832C22.9853 13.8113 23.4471 12.6645 23.7931 11.579C25.3669 12.0214 28.8193 13.0325 28.8193 14.9774C28.8193 16.9406 25.5063 17.9613 23.8484 18.4378ZM22.3801 25.8056C20.6345 26.7853 18.0415 24.4402 16.8468 23.3258C17.6394 22.4854 18.4314 21.5083 19.2043 20.4233C20.5641 20.3064 21.8486 20.1152 23.0135 19.8541C23.3951 21.3501 24.1334 24.8215 22.3801 25.8056ZM9.51165 25.7917C7.76584 24.8156 8.5638 21.4637 8.9641 19.9062C10.1161 20.1533 11.3913 20.3311 12.7543 20.4382C13.5323 21.4999 14.3473 22.4757 15.1685 23.3303C14.1538 24.282 11.2656 26.7722 9.51165 25.7917ZM3.09715 14.9774C3.09715 13.0069 6.52894 12.0031 8.1386 11.5618C8.4906 12.6717 8.95227 13.8322 9.50941 15.0058C8.94505 16.1968 8.47679 17.3757 8.12155 18.4987C6.58671 18.0727 3.09715 16.9492 3.09715 14.9774ZM9.49297 4.22207C11.2459 3.23827 13.9658 5.63421 15.1294 6.71262C14.3124 7.56332 13.5049 8.53181 12.7335 9.58734C11.4108 9.70622 10.1446 9.89709 8.98052 10.1528C8.5438 8.45691 7.74193 5.2048 9.49297 4.22207ZM20.0638 10.8535C20.9612 10.9633 21.821 11.1094 22.6283 11.2881C22.3859 12.0412 22.0839 12.8288 21.7281 13.6362C21.2124 12.6875 20.6588 11.7577 20.0638 10.8535ZM15.9717 7.54509C16.5258 8.12716 17.0808 8.77715 17.6268 9.48234C16.5193 9.43153 15.4101 9.43134 14.3026 9.48159C14.8491 8.78295 15.4089 8.13392 15.9717 7.54509ZM10.1987 13.6354C9.84884 12.8308 9.54948 12.0397 9.30502 11.2758C10.1075 11.1017 10.9633 10.9594 11.8548 10.8514C11.2582 11.7536 10.7055 12.683 10.1987 13.6354ZM11.8804 19.1866C10.9594 19.0869 10.0907 18.9518 9.28846 18.7825C9.53679 18.0052 9.84273 17.197 10.2001 16.3751C10.7139 17.3375 11.275 18.2758 11.8804 19.1866ZM16.0049 22.492C15.4355 21.8962 14.8675 21.2373 14.3128 20.5285C15.4265 20.5709 16.5424 20.571 17.6561 20.5228C17.1084 21.2445 16.5553 21.9044 16.0049 22.492ZM21.7395 16.3333C22.1155 17.1641 22.4323 17.9678 22.6841 18.7321C21.8685 18.9126 20.9881 19.0579 20.0605 19.1658C20.6598 18.2444 21.2222 17.3002 21.7395 16.3333ZM18.5338 19.307C16.8302 19.425 15.116 19.4237 13.4118 19.3166C12.4435 17.9452 11.5814 16.5028 10.8373 15.0054C11.5779 13.5112 12.4336 12.0716 13.3974 10.7023C15.1028 10.5773 16.8187 10.577 18.5241 10.7031C19.4796 12.0723 20.334 13.5081 21.0917 14.9888C20.343 16.4824 19.4828 17.9248 18.5338 19.307ZM22.3617 4.18744C24.1151 5.16801 23.3346 8.65055 22.9515 10.1649C21.7847 9.90384 20.5176 9.70959 19.191 9.58884C18.4182 8.52191 17.6174 7.55173 16.8136 6.71202C17.9922 5.61038 20.6252 3.21646 22.3617 4.18744Z" fill="#53C1DE"/>
</g>
<defs>
<clipPath id="clip0_194_116">
<rect width="30" height="30" fill="white" transform="translate(0.958252)"/>
</clipPath>
</defs>
</svg>
