<svg width="35" height="35" viewBox="0 0 35 35" fill="none" xmlns="http://www.w3.org/2000/svg">
<path d="M17.687 20.4531C17.161 20.6948 16.5845 21.0098 15.4306 21.6431C14.9931 21.8892 14.536 22.1353 14.1105 22.3672C14.081 22.3376 14.0503 22.3004 14.0208 22.2698C11.7381 19.8308 7.51627 18.1081 7.69564 14.8323C7.76236 13.639 8.17252 10.5065 15.8036 6.70247C22.0839 3.60716 27.0813 4.46466 27.9442 6.36669C29.1845 9.0781 25.2656 14.1236 18.7797 14.8553C18.0619 15.0009 17.3205 14.9833 16.6104 14.8038C15.9002 14.6244 15.2395 14.2876 14.677 13.8184C14.3336 13.4454 14.2822 13.4236 14.1553 13.4979C13.9464 13.6073 14.081 13.9453 14.1553 14.1389C14.4027 14.5868 14.7374 14.9806 15.1397 15.297C15.5419 15.6133 16.0034 15.8458 16.4971 15.9808C19.0494 16.5324 21.7106 16.2688 24.1052 15.2272C28.0361 13.7058 31.1052 9.47622 30.2061 5.93028C29.3038 2.33513 23.3363 1.1495 17.6903 3.15544C14.1545 4.34697 10.8878 6.22265 8.07627 8.6756C4.96564 11.585 4.47346 14.1137 4.67471 15.1725C5.39877 18.9317 10.581 21.3784 12.6591 23.1908C12.5497 23.2509 12.4578 23.3001 12.3758 23.3472C11.3389 23.8623 7.38611 25.9284 6.40064 28.1137C5.28174 30.59 6.58002 32.3651 7.43752 32.6036C8.72977 32.9131 10.0864 32.8113 11.3181 32.3125C12.5497 31.8137 13.5948 30.9426 14.3074 29.8211C14.9125 28.891 15.2841 27.8286 15.3905 26.7241C15.497 25.6197 15.3351 24.5058 14.9188 23.4773C15.1644 23.2814 15.4264 23.1068 15.7019 22.9556C16.2313 22.6428 16.7355 22.3343 17.1828 22.0959C18.7145 21.3785 20.386 21.0091 22.0774 21.0142C25.6277 21.432 26.3288 23.6468 26.1942 24.5798C26.1313 24.9108 25.9982 25.2245 25.8039 25.4998C25.6095 25.775 25.3585 26.0055 25.0677 26.1756C24.8216 26.332 24.7395 26.3845 24.7614 26.4961C24.791 26.6601 24.9102 26.6525 25.1191 26.6229C25.6525 26.4544 26.1224 26.1284 26.4672 25.6878C26.8119 25.2472 27.0153 24.7126 27.0506 24.1543C27.16 21.9668 25.0742 19.5672 21.3817 19.589C20.2761 19.5909 19.1815 19.809 18.1596 20.2311C17.9955 20.2989 17.8362 20.3718 17.6816 20.4498L17.687 20.4531ZM12.4097 29.027C11.2306 30.31 9.59002 30.7945 8.88127 30.3843C8.11564 29.9468 8.41861 28.0492 9.86564 26.6918C10.7227 25.9197 11.649 25.2281 12.6328 24.6258C12.8045 24.5164 13.0583 24.372 13.3635 24.1883C13.416 24.1587 13.4455 24.1434 13.4455 24.1434L13.6249 24.034C13.8829 24.8993 13.9064 25.8176 13.6929 26.6949C13.4794 27.5723 13.0365 28.3771 12.4097 29.027Z" fill="#CD6799"/>
</svg>
