<svg width="386" height="256" viewBox="0 0 386 256" fill="none" xmlns="http://www.w3.org/2000/svg">
<path fill-rule="evenodd" clip-rule="evenodd" d="M179.513 211.653C161.191 223.875 139.177 231 115.5 231C51.7111 231 0 179.289 0 115.5C0 51.7111 51.7111 0 115.5 0C152.449 0 185.345 17.3497 206.487 44.3468C224.809 32.1246 246.823 25 270.5 25C334.289 25 386 76.7111 386 140.5C386 204.289 334.289 256 270.5 256C233.551 256 200.655 238.65 179.513 211.653Z" fill="white"/>
<path d="M108.218 74.099C110.163 70.8754 114.837 70.8754 116.782 74.0989L158.589 143.418C160.599 146.75 158.199 151 154.308 151H70.6921C66.8005 151 64.4007 146.75 66.4106 143.418L108.218 74.099Z" fill="black"/>
<rect x="209" y="107.046" width="100" height="100" rx="5" transform="rotate(-15.6917 209 107.046)" fill="black"/>
</svg>
