<svg width="24" height="26" viewBox="0 0 24 26" fill="none" xmlns="http://www.w3.org/2000/svg">
<g clip-path="url(#clip0_194_291)">
<path d="M9 20.1137C4 21.6478 4 17.5569 2 17.0456M16 23.1819V19.224C16.0375 18.7363 15.9731 18.246 15.811 17.7858C15.6489 17.3256 15.3929 16.9059 15.06 16.5547C18.2 16.1967 21.5 14.9796 21.5 9.39556C21.4997 7.96765 20.9627 6.59451 20 5.56033C20.4559 4.31108 20.4236 2.93023 19.91 1.70465C19.91 1.70465 18.73 1.34669 16 3.21828C13.708 2.58299 11.292 2.58299 9 3.21828C6.27 1.34669 5.09 1.70465 5.09 1.70465C4.57638 2.93023 4.54414 4.31108 5 5.56033C4.03013 6.60218 3.49252 7.98774 3.5 9.42624C3.5 14.9694 6.8 16.1865 9.94 16.5853C9.611 16.933 9.35726 17.3477 9.19531 17.8023C9.03335 18.2569 8.96681 18.7413 9 19.224V23.1819" stroke="white" stroke-width="2" stroke-linecap="round" stroke-linejoin="round"/>
</g>
<defs>
<clipPath id="clip0_194_291">
<rect width="24" height="24.5455" fill="white" transform="translate(0 0.681885)"/>
</clipPath>
</defs>
</svg>
