<svg width="30" height="30" viewBox="0 0 30 30" fill="none" xmlns="http://www.w3.org/2000/svg">
<g clip-path="url(#clip0_194_113)">
<path d="M25.4646 0.587402H4.49375C2.01192 0.587402 0 2.56267 0 4.99929V25.5881C0 28.0247 2.01192 30 4.49375 30H25.4646C27.9464 30 29.9583 28.0247 29.9583 25.5881V4.99929C29.9583 2.56267 27.9464 0.587402 25.4646 0.587402Z" fill="#F7DF1E"/>
<path d="M18.9581 21.8427C19.5432 22.8193 20.3624 23.5086 21.7082 23.5086C22.8784 23.5086 23.6391 22.9341 23.6391 22.1299C23.6391 21.2108 22.8784 20.8661 21.5911 20.2916L20.889 20.0044C18.8411 19.1427 17.4953 18.1086 17.4953 15.8682C17.4953 13.8002 19.0751 12.1917 21.5911 12.1917C23.405 12.1917 24.6923 12.8236 25.57 14.4321L23.405 15.8108C22.9369 14.9491 22.4103 14.6044 21.5911 14.6044C20.772 14.6044 20.2454 15.1214 20.2454 15.8108C20.2454 16.615 20.772 16.9597 22.0007 17.4767L22.7029 17.764C25.1019 18.798 26.4477 19.7746 26.4477 22.1299C26.4477 24.6001 24.4583 25.9788 21.7667 25.9788C19.1336 25.9788 17.4368 24.7724 16.6176 23.1639L18.9581 21.8427ZM9.01099 22.0725C9.47909 22.8193 9.83016 23.5086 10.8249 23.5086C11.7611 23.5086 12.3462 23.1639 12.3462 21.7852V12.2491H15.1548V21.6703C15.1548 24.5427 13.4579 25.8065 10.9419 25.8065C8.65991 25.8065 7.37264 24.6575 6.729 23.2788L9.01099 22.0725Z" fill="black"/>
</g>
<defs>
<clipPath id="clip0_194_113">
<rect width="29.9583" height="29.4126" fill="white" transform="translate(0 0.587402)"/>
</clipPath>
</defs>
</svg>
