<svg width="30" height="21" viewBox="0 0 30 21" fill="none" xmlns="http://www.w3.org/2000/svg">
<path d="M7.07874 5.38024H12.737V5.88851H7.59741V9.71389H12.4305V10.2222H7.59741V14.4221H12.796V14.9303H7.07874V5.38024ZM13.2439 5.38024H13.8451L16.5092 9.58014L19.2322 5.38024L22.936 0.0454102L16.851 10.0215L19.9867 14.9303H19.3619L16.5092 10.4629L13.6447 14.9303H13.0317L16.1909 10.0215L13.2439 5.38024ZM20.2106 5.88851V5.38024H26.6587V5.88851H23.6881V14.9303H23.1695V5.88851H20.2106ZM0 5.38024H0.648344L9.58863 20.5L5.89404 14.9303L0.542251 6.10252L0.518675 14.9303H0V5.38024ZM26.6065 14.2687C26.5005 14.2687 26.421 14.1759 26.421 14.056C26.421 13.936 26.5005 13.8432 26.6065 13.8432C26.7137 13.8432 26.7919 13.936 26.7919 14.056C26.7919 14.1759 26.7137 14.2687 26.6065 14.2687ZM27.1161 13.7091H27.3937C27.3974 13.8789 27.5072 13.9931 27.6687 13.9931C27.8491 13.9931 27.9513 13.8704 27.9513 13.6405V12.1844H28.2338V13.642C28.2338 14.056 28.0219 14.2944 27.6712 14.2944C27.3419 14.2944 27.1161 14.0631 27.1161 13.7091ZM28.6035 13.6905H28.8835C28.9075 13.8861 29.0766 14.0103 29.32 14.0103C29.5471 14.0103 29.7136 13.8775 29.7136 13.6948C29.7136 13.5377 29.6077 13.4435 29.3667 13.3793L29.1321 13.315C28.8028 13.228 28.6527 13.0481 28.6527 12.7454C28.6527 12.3785 28.9176 12.1344 29.315 12.1344C29.6846 12.1344 29.9546 12.3785 29.971 12.7254H29.696C29.6695 12.5356 29.5231 12.4171 29.3112 12.4171C29.0879 12.4171 28.939 12.5384 28.939 12.724C28.939 12.871 29.0349 12.9553 29.2721 13.0181L29.4727 13.0738C29.8461 13.1723 30 13.3436 30 13.6534C30 14.0474 29.73 14.2944 29.2986 14.2944C28.8949 14.2944 28.6237 14.0588 28.6035 13.6905Z" fill="white"/>
</svg>
