<svg width="31" height="30" viewBox="0 0 31 30" fill="none" xmlns="http://www.w3.org/2000/svg">
<path d="M9.39575 12.8437C10.2708 9.34375 12.4583 7.59375 15.9583 7.59375C21.2083 7.59375 21.8645 11.5312 24.4895 12.1875C26.2395 12.625 27.7708 11.9687 29.0833 10.2187C28.2083 13.7187 26.0208 15.4687 22.5208 15.4687C17.2708 15.4687 16.6145 11.5312 13.9895 10.875C12.2395 10.4375 10.7083 11.0937 9.39575 12.8437ZM2.83325 20.7188C3.70825 17.2188 5.89575 15.4687 9.39575 15.4687C14.6458 15.4687 15.302 19.4062 17.927 20.0625C19.677 20.5 21.2083 19.8437 22.5208 18.0937C21.6458 21.5937 19.4583 23.3437 15.9583 23.3437C10.7083 23.3437 10.052 19.4062 7.427 18.75C5.677 18.3125 4.14575 18.9688 2.83325 20.7188Z" fill="#44A8B3"/>
</svg>
